<svg width="97" height="30" viewBox="0 0 97 30" fill="none" xmlns="http://www.w3.org/2000/svg">
    <path fill-rule="evenodd" clip-rule="evenodd" d="M26.7128 0.00012207H4.8999C3.8152 0.000787938 2.77508 0.431801 2.00784 1.19856C1.24061 1.96533 0.80895 3.00519 0.807617 4.08989V25.9104C0.80895 26.9951 1.24061 28.0349 2.00784 28.8017C2.77508 29.5684 3.8152 29.9995 4.8999 30.0001H26.7178C27.8023 29.9995 28.8422 29.5684 29.609 28.8015C30.3758 28.0347 30.8069 26.9948 30.8076 25.9104V4.08989C30.8069 3.00542 30.3758 1.96555 29.609 1.19872C28.8422 0.431883 27.8023 0.00078882 26.7178 0.00012207H26.7128ZM14.5543 20.98C14.5531 21.4454 14.4228 21.9014 14.178 22.2973C13.9332 22.6932 13.5834 23.0134 13.1675 23.2224L9.53832 25.037V19.6864C9.53904 19.2205 9.66905 18.7639 9.91389 18.3676C10.1587 17.9712 10.5088 17.6506 10.9251 17.4414L14.5543 15.6268V20.98ZM22.0845 17.2048C22.0837 17.6707 21.9537 18.1272 21.7089 18.5236C21.4641 18.92 21.114 19.2406 20.6977 19.4498L17.0685 21.2619V9.02528C17.0695 8.56009 17.1993 8.10425 17.4437 7.7084C17.688 7.31255 18.0373 6.99218 18.4527 6.78284L22.0845 4.96824V17.2048Z" fill="#222222"/>
    <path fill-rule="evenodd" clip-rule="evenodd" d="M69.8056 26.1528C69.4687 26.1544 69.134 26.1023 68.8148 25.9985C68.5421 25.9192 68.289 25.7868 68.0712 25.6096L68.389 24.9421C68.5895 25.0974 68.8175 25.2163 69.062 25.2929C69.3183 25.3799 69.5879 25.4246 69.8596 25.4252C70.5256 25.4252 70.8586 25.2141 70.8586 24.7918C70.8617 24.7303 70.8512 24.6689 70.828 24.6115C70.8047 24.5542 70.7691 24.5022 70.7236 24.4591C70.6282 24.3736 70.5127 24.3117 70.3871 24.2787C70.2521 24.2406 70.061 24.1985 69.8139 24.1504C69.5315 24.1067 69.2535 24.0396 68.983 23.9499C68.7667 23.8714 68.5765 23.7377 68.4326 23.5631C68.2678 23.3414 68.1871 23.0717 68.2042 22.7994C68.1971 22.6064 68.2363 22.4144 68.3188 22.2385C68.4013 22.0625 68.5249 21.9074 68.6798 21.7852C69.0437 21.516 69.4952 21.3809 69.953 21.4043C70.2341 21.4055 70.5136 21.4439 70.7838 21.5186C71.0309 21.58 71.2645 21.6839 71.4734 21.8252L71.1473 22.4927C70.797 22.244 70.3712 22.1143 69.9364 22.1239C69.6785 22.107 69.4216 22.168 69.2011 22.2983C69.1218 22.3495 69.0571 22.4191 69.0128 22.5007C68.9686 22.5823 68.9462 22.6732 68.9477 22.7653C68.9444 22.8315 68.9554 22.8975 68.9801 22.9593C69.0048 23.0211 69.0426 23.0773 69.0911 23.1241C69.189 23.218 69.3096 23.2869 69.4421 23.3246C69.5812 23.3666 69.7786 23.4128 70.032 23.4649C70.3093 23.5131 70.5827 23.5801 70.8503 23.6653C71.0614 23.7401 71.2469 23.8698 71.3862 24.0401C71.5455 24.2534 71.6233 24.5134 71.6063 24.7758C71.6132 24.968 71.5727 25.1591 71.4882 25.3333C71.4037 25.5075 71.2777 25.6599 71.1203 25.778C70.7356 26.0444 70.268 26.176 69.7952 26.1508L69.8056 26.1528ZM65.8384 26.1528C65.5023 26.1546 65.1682 26.1024 64.8498 25.9985C64.577 25.9192 64.3239 25.7868 64.1062 25.6096L64.4219 24.9421C64.6229 25.0966 64.8508 25.2154 65.0948 25.2929C65.3518 25.3799 65.6222 25.4246 65.8945 25.4252C66.5592 25.4252 66.8915 25.2141 66.8915 24.7918C66.895 24.7303 66.8847 24.6687 66.8614 24.6113C66.8381 24.5539 66.8023 24.502 66.7565 24.4591C66.6615 24.374 66.5469 24.3121 66.4221 24.2787C66.2871 24.2406 66.096 24.1985 65.8467 24.1504C65.5644 24.1066 65.2864 24.0395 65.0159 23.9499C64.7993 23.872 64.6089 23.7382 64.4655 23.5631C64.299 23.3421 64.2174 23.0721 64.235 22.7994C64.2283 22.6065 64.2678 22.4146 64.3503 22.2388C64.4327 22.0629 64.556 21.9077 64.7106 21.7852C65.0753 21.516 65.5274 21.381 65.9859 21.4043C66.2669 21.4057 66.5464 21.4442 66.8167 21.5186C67.0631 21.58 67.2961 21.6839 67.5042 21.8252L67.1802 22.4927C66.8299 22.244 66.4041 22.1143 65.9693 22.1239C65.7114 22.107 65.4544 22.168 65.234 22.2983C65.1543 22.3491 65.0892 22.4186 65.0449 22.5003C65.0006 22.582 64.9785 22.6731 64.9806 22.7653C64.9769 22.8313 64.9875 22.8974 65.0118 22.9592C65.0362 23.021 65.0736 23.0772 65.1218 23.1241C65.2207 23.2179 65.342 23.2868 65.4749 23.3246C65.6141 23.3666 65.8114 23.4128 66.0648 23.4649C66.3421 23.5134 66.6155 23.5804 66.8832 23.6653C67.0936 23.7401 67.2784 23.8699 67.417 24.0401C67.578 24.2527 67.6567 24.513 67.6392 24.7758C67.646 24.968 67.6056 25.1591 67.5211 25.3333C67.4366 25.5075 67.3105 25.6599 67.1532 25.778C66.7679 26.0449 66.2995 26.1764 65.826 26.1508L65.8384 26.1528ZM61.5099 22.1139C61.3393 22.1102 61.1698 22.1411 61.0124 22.2047C60.8549 22.2682 60.7131 22.3629 60.596 22.4827C60.3411 22.7472 60.1885 23.0884 60.164 23.4488H62.8641C62.8364 23.0909 62.6842 22.7526 62.4321 22.4887C62.316 22.3672 62.1745 22.271 62.0169 22.2064C61.8594 22.1417 61.6894 22.1102 61.5182 22.1139H61.5099ZM63.5869 23.7996C63.5869 23.8638 63.5869 23.9499 63.5724 24.0542L60.164 24.0542C60.1944 24.4301 60.3674 24.7819 60.65 25.0424C60.8085 25.1759 60.9933 25.2772 61.1933 25.3403C61.3934 25.4033 61.6045 25.4267 61.8142 25.4091C62.0238 25.3915 62.2276 25.3333 62.4134 25.2379C62.5991 25.1425 62.763 25.0119 62.8953 24.8539L63.3107 25.3971C63.1263 25.6384 62.883 25.8319 62.6024 25.9604C62.2637 26.1039 61.8948 26.1687 61.5254 26.1496C61.156 26.1304 60.7964 26.0279 60.4755 25.8501C60.1316 25.6469 59.8555 25.3526 59.68 25.0023C59.4883 24.6195 59.3923 24.1986 59.3996 23.7736C59.3924 23.3519 59.4854 22.9343 59.6717 22.5528C59.8358 22.2088 60.0962 21.9158 60.4236 21.707C60.7442 21.5043 61.1204 21.3988 61.5037 21.4043C61.8844 21.3982 62.2581 21.5038 62.5754 21.707C62.898 21.9171 63.1534 22.2101 63.3128 22.5528C63.4951 22.9445 63.5852 23.3703 63.5765 23.7996H63.5869ZM56.6205 21.3943C56.8586 21.3837 57.0961 21.4242 57.3159 21.513C57.5357 21.6017 57.7324 21.7364 57.8917 21.9074C58.2046 22.2508 58.3618 22.7526 58.3632 23.4128L58.3632 26.1007H57.5947L57.5947 23.519C57.622 23.1571 57.5185 22.7973 57.3018 22.5007C57.1996 22.3862 57.0716 22.2958 56.9276 22.2363C56.7836 22.1769 56.6274 22.1501 56.471 22.158C56.2879 22.15 56.1052 22.1818 55.9366 22.2512C55.7679 22.3206 55.6177 22.4258 55.4969 22.5589C55.2392 22.8865 55.1131 23.293 55.1417 23.7034L55.1417 26.1087L54.3815 26.1087L54.3815 21.4484L55.1022 21.4484V22.15C55.2521 21.9128 55.468 21.7211 55.7253 21.5967C56.0007 21.4621 56.3056 21.3934 56.6143 21.3963L56.6205 21.3943ZM52.5537 20.5424C52.4838 20.5441 52.4143 20.5308 52.3504 20.5034C52.2864 20.476 52.2296 20.4353 52.184 20.3841C52.0865 20.2775 52.0346 20.1393 52.0386 19.9972C52.035 19.854 52.0868 19.7146 52.184 19.6063C52.229 19.5542 52.2856 19.5125 52.3496 19.4844C52.4136 19.4562 52.4834 19.4424 52.5537 19.444C52.6229 19.4426 52.6916 19.4557 52.755 19.4823C52.8185 19.5089 52.8752 19.5485 52.9214 19.5983C53.0195 19.7029 53.0716 19.8402 53.0667 19.9812C53.0718 20.1276 53.0199 20.2706 52.9214 20.382C52.8766 20.4339 52.8203 20.4755 52.7567 20.5036C52.693 20.5317 52.6237 20.5456 52.5537 20.5444V20.5424ZM52.1736 21.4384H52.9317L52.9317 26.1007H52.1736L52.1736 21.4484V21.4384ZM49.4112 26.1428C49.0744 26.1446 48.7396 26.0924 48.4204 25.9885C48.1477 25.9092 47.8946 25.7768 47.6768 25.5996L47.9925 24.9321C48.1936 25.0866 48.4214 25.2054 48.6655 25.2829C48.9225 25.3698 49.1928 25.4146 49.4652 25.4152C50.1298 25.4152 50.4621 25.204 50.4621 24.7818C50.4655 24.7204 50.4554 24.6591 50.4325 24.6017C50.4095 24.5444 50.3744 24.4924 50.3292 24.449C50.2332 24.3643 50.118 24.3025 49.9927 24.2686C49.8577 24.2306 49.6666 24.1885 49.4174 24.1404C49.135 24.0966 48.8571 24.0295 48.5866 23.9399C48.3699 23.8619 48.1795 23.7281 48.0362 23.5531C47.8713 23.3314 47.7906 23.0617 47.8077 22.7894C47.8007 22.5966 47.8397 22.4048 47.9219 22.2289C48.004 22.0531 48.127 21.8978 48.2813 21.7751C48.6459 21.5059 49.0981 21.3709 49.5566 21.3943C49.8376 21.3956 50.1171 21.434 50.3874 21.5085C50.634 21.5695 50.8669 21.6735 51.0749 21.8152L50.7508 22.4827C50.4006 22.2339 49.9747 22.1042 49.5399 22.1139C49.282 22.097 49.0251 22.158 48.8047 22.2883C48.725 22.3391 48.6599 22.4086 48.6156 22.4903C48.5713 22.5719 48.5491 22.6631 48.5513 22.7553C48.548 22.8212 48.5589 22.8871 48.5832 22.9489C48.6075 23.0106 48.6447 23.0668 48.6925 23.1141C48.7917 23.2074 48.9129 23.2762 49.0456 23.3145C49.1848 23.3566 49.3821 23.4027 49.6355 23.4548C49.9127 23.5034 50.1862 23.5703 50.4538 23.6553C50.6647 23.7305 50.85 23.8602 50.9897 24.0301C51.1491 24.2434 51.2269 24.5033 51.2099 24.7657C51.2167 24.958 51.1762 25.149 51.0918 25.3233C51.0073 25.4975 50.8812 25.6499 50.7239 25.768C50.3391 26.0344 49.8715 26.1659 49.3987 26.1408L49.4112 26.1428ZM46.7588 21.4384L46.7588 26.1007H46.0381V25.3971C45.8912 25.6319 45.6818 25.8244 45.4316 25.9544C45.0862 26.1267 44.6932 26.1891 44.3089 26.1326C43.9246 26.076 43.5687 25.9035 43.2922 25.6397C42.9696 25.2963 42.8083 24.7911 42.8083 24.1243L42.8083 21.4484L43.5685 21.4484L43.5685 24.0361C43.5416 24.3992 43.645 24.7602 43.8613 25.0584C43.9627 25.1741 44.0905 25.2657 44.2346 25.3258C44.3787 25.386 44.5353 25.4131 44.6921 25.4052C44.8716 25.4131 45.0506 25.381 45.2152 25.3115C45.3798 25.242 45.5256 25.1369 45.6413 25.0043C45.8935 24.6758 46.0171 24.2718 45.9903 23.8638V21.4584L46.7588 21.4384ZM39.5785 25.3791C39.9349 25.4033 40.2901 25.3169 40.5921 25.1326C40.7095 25.0403 40.8019 24.9218 40.8613 24.7873C40.9206 24.6529 40.9451 24.5065 40.9327 24.3608C40.9327 23.6753 40.482 23.3346 39.5785 23.3346L37.759 23.3346V25.3791L39.5785 25.3791ZM37.759 20.6567V22.633L39.3812 22.633C39.7137 22.6534 40.0437 22.5652 40.3179 22.3825C40.422 22.2887 40.505 22.1753 40.5617 22.0492C40.6185 21.9232 40.6478 21.7873 40.6478 21.6498C40.6478 21.5124 40.6185 21.3765 40.5617 21.2505C40.505 21.1244 40.422 21.011 40.3179 20.9172C40.0441 20.7337 39.7138 20.6453 39.3812 20.6667L37.759 20.6567ZM40.6939 22.9036C41.0035 22.9945 41.2717 23.1848 41.454 23.4428C41.649 23.7371 41.7461 24.0819 41.7324 24.431C41.7465 24.6623 41.705 24.8936 41.6109 25.1068C41.5168 25.32 41.3729 25.5093 41.1903 25.6597C40.8289 25.947 40.302 26.0907 39.6096 26.0907L36.9614 26.0907L36.9614 19.9551L39.4539 19.9551C40.0881 19.9551 40.5775 20.0954 40.9223 20.376C41.0956 20.5196 41.2325 20.6996 41.3225 20.9022C41.4125 21.1047 41.4532 21.3245 41.4416 21.5446C41.4476 21.8352 41.3761 22.1223 41.2339 22.3785C41.1105 22.6036 40.9222 22.7895 40.6918 22.9137L40.6939 22.9036ZM92.6633 3.21003V10.2536C92.5055 10.0051 88.5425 3.22004 88.5425 3.22004L85.0115 3.22004L85.0115 15.7117L88.5425 15.7117L88.5425 8.66611C88.5882 8.73626 92.5158 15.4612 92.6612 15.7097L96.1922 15.7097L96.1922 3.22004L92.6633 3.21003ZM57.6653 4.97393V3.22606L54.2507 3.22606L54.2507 11.1316C54.2683 11.4136 54.228 11.6961 54.1321 11.9631C54.0362 12.23 53.8866 12.476 53.6919 12.687C53.2808 13.0694 52.7321 13.283 52.1612 13.283C51.5902 13.283 51.0415 13.0694 50.6304 12.687C50.2405 12.2631 50.0404 11.7075 50.0737 11.1416L50.0737 3.22606L46.6591 3.22606L46.6591 10.7427C46.6736 11.4433 46.7847 12.1389 46.9893 12.8113C47.1408 13.3173 47.3958 13.7889 47.7392 14.1983C48.068 14.6189 48.4786 14.9736 48.948 15.2427C49.4632 15.5098 50.0278 15.6766 50.6096 15.7338C51.2231 15.8139 51.8412 15.8561 52.4602 15.86C53.31 15.8818 54.1562 15.7457 54.9527 15.4591C55.4942 15.2305 55.976 14.8881 56.363 14.4569C56.8139 13.9775 57.1513 13.4091 57.3517 12.7912C57.5652 12.1328 57.6723 11.4466 57.6694 10.7567L57.6694 4.97393H57.6653ZM80.3216 15.7097L83.8525 15.7097L78.554 3.22004L75.0127 3.22004L69.7142 15.7097L73.2451 15.7097L73.9659 14.0079L79.6112 14.0079L80.332 15.7097H80.3216ZM74.9213 11.7369L76.7761 7.36523L78.6288 11.7369L74.9213 11.7369ZM69.6415 10.6986C69.8329 11.3648 69.8886 12.0605 69.8056 12.7471C69.7644 13.2521 69.5879 13.7381 69.2933 14.1574C68.9987 14.5766 68.5962 14.9147 68.1252 15.1384C67.2654 15.5894 66.3224 15.7518 65.3566 15.8219C64.7342 15.8637 64.1096 15.8637 63.4872 15.8219C62.5214 15.7518 61.5784 15.5894 60.7185 15.1384C60.2476 14.9147 59.8451 14.5766 59.5505 14.1574C59.2559 13.7381 59.0794 13.2521 59.0382 12.7471C59.0107 12.4285 59.001 12.1087 59.0091 11.789L62.2722 11.789C62.2722 11.9053 62.2722 11.9213 62.2722 12.0316C62.2825 12.701 62.5505 13.0558 63.2421 13.2142C64.0212 13.3876 64.8309 13.3876 65.6099 13.2142C66.3224 13.0518 66.5862 12.6469 66.5986 12.0295C66.5956 11.9256 66.5817 11.8221 66.5571 11.7209C66.5173 11.5916 66.4479 11.4726 66.3541 11.3727C66.2603 11.2728 66.1444 11.1945 66.015 11.1436C65.6141 10.9431 64.9225 10.859 64.4821 10.7728C63.6368 10.6084 62.7893 10.4621 61.9502 10.2757C61.3493 10.1485 60.7804 9.90808 60.2761 9.5681C60.2027 9.51866 60.1335 9.46654 60.0684 9.41175C59.6555 9.07375 59.3544 8.62635 59.2023 8.1249C59.0645 7.68726 59 7.23119 59.0112 6.77392C59.008 6.57313 59.017 6.37234 59.0382 6.17258C59.0803 5.67016 59.2564 5.1868 59.5494 4.76951C59.8424 4.35223 60.2423 4.01524 60.7102 3.79131C61.5701 3.34031 62.5131 3.17795 63.4789 3.1098C64.1012 3.0661 64.726 3.0661 65.3482 3.1098C66.3141 3.17795 67.257 3.34031 68.1169 3.79131C68.5879 4.01504 68.9904 4.35313 69.285 4.77238C69.5796 5.19162 69.7561 5.67761 69.7973 6.1826C69.8247 6.50124 69.8344 6.82108 69.8263 7.14073L66.5737 7.14073V6.89819C66.5633 6.22871 66.2933 5.87392 65.6037 5.71557C64.8245 5.54319 64.0151 5.54319 63.2359 5.71557C62.725 5.83383 62.4446 6.05833 62.3282 6.43918C62.2721 6.6577 62.2721 6.88613 62.3282 7.10465C62.368 7.23392 62.4374 7.3529 62.5312 7.45282C62.625 7.55274 62.7409 7.63104 62.8703 7.68192C63.2712 7.88236 63.9213 7.96656 64.3617 8.05275C65.207 8.21711 66.0544 8.36343 66.8936 8.54984C67.4946 8.67768 68.0635 8.91883 68.5676 9.25942C68.6383 9.30953 68.7068 9.36164 68.7753 9.41376C69.1876 9.7523 69.4886 10.1995 69.6415 10.7006V10.6986ZM42.64 4.45879C42.3468 4.60022 42.1002 4.81763 41.9278 5.08668C41.7553 5.35574 41.664 5.66581 41.6638 5.98216L41.6638 10.9431C41.6638 11.1628 41.6513 11.3823 41.6264 11.6006C41.5371 12.3402 41.0989 12.8233 40.3345 12.8714L36.9614 12.8714L36.9614 15.6776L39.1298 15.6776C39.8402 15.6776 40.5505 15.6776 41.2609 15.6776C41.7429 15.672 42.2221 15.6046 42.6857 15.4772C43.6765 15.2046 44.4367 14.6634 44.8542 13.7293C45.101 13.1313 45.2177 12.4906 45.1969 11.8471V11.5926C45.1969 11.5806 45.1969 11.5665 45.1969 11.5545L45.1969 3.22606L42.64 4.45879Z" fill="#222222"/>
</svg>
